<?xml version="1.0" encoding="UTF-8" standalone="no"?>
<svg
   width="499.16mm"
   height="77.928mm"
   version="1.1"
   viewBox="0 0 499.16 77.928"
   id="svg30"
   sodipodi:docname="logo.svg"
   inkscape:version="1.2.2 (b0a8486541, 2022-12-01)"
   xmlns:inkscape="http://www.inkscape.org/namespaces/inkscape"
   xmlns:sodipodi="http://sodipodi.sourceforge.net/DTD/sodipodi-0.dtd"
   xmlns="http://www.w3.org/2000/svg"
   xmlns:svg="http://www.w3.org/2000/svg">
  <defs
     id="defs34" />
  <sodipodi:namedview
     id="namedview32"
     pagecolor="#000000"
     bordercolor="#666666"
     borderopacity="1.0"
     inkscape:pageshadow="2"
     inkscape:pageopacity="0"
     inkscape:pagecheckerboard="0"
     inkscape:document-units="mm"
     showgrid="false"
     inkscape:object-paths="true"
     inkscape:snap-intersection-paths="true"
     inkscape:snap-smooth-nodes="true"
     inkscape:snap-midpoints="true"
     inkscape:snap-center="true"
     inkscape:snap-object-midpoints="true"
     inkscape:snap-text-baseline="true"
     inkscape:snap-page="true"
     inkscape:snap-bbox="true"
     inkscape:bbox-paths="true"
     inkscape:bbox-nodes="true"
     inkscape:snap-bbox-edge-midpoints="true"
     inkscape:snap-bbox-midpoints="true"
     inkscape:object-nodes="true"
     inkscape:snap-nodes="true"
     inkscape:zoom="0.50017933"
     inkscape:cx="784.71856"
     inkscape:cy="-38.986017"
     inkscape:window-width="1854"
     inkscape:window-height="1011"
     inkscape:window-x="0"
     inkscape:window-y="0"
     inkscape:window-maximized="1"
     inkscape:current-layer="svg30"
     inkscape:showpageshadow="2"
     inkscape:deskcolor="#000000" />
  <g
     transform="matrix(-0.093689,0,0,0.093689,95.178,-17.249)"
     fill="#ffffff"
     fill-opacity="0.2"
     stroke-width="0.1"
     id="g10"
     style="fill:#efefef;fill-opacity:0.2">
    <path
       d="M 975.14,258.73 C 749.89,483.54 634.68,599.24 635.05,600 c 1.0661,2.1549 224.27,224.65 224.94,224.24 0.5071,-0.2508 35.74,-136.65 78.343,-303.28 l 77.55,-302.81 z"
       id="path2"
       style="fill:#efefef;fill-opacity:0.2" />
    <path
       d="M 258.73,224.86 C 483.54,450.11 599.24,565.32 600,564.95 602.1549,563.8839 824.65,340.68 824.24,340.01 823.9891,339.5029 687.59,304.27 520.96,261.667 l -302.81,-77.55 z"
       id="path4"
       style="fill:#efefef;fill-opacity:0.2" />
    <path
       d="M 224.86,941.27 C 450.11,716.46 565.32,600.76 564.95,600 563.8839,597.8451 340.68,375.35 340.01,375.76 c -0.50711,0.2508 -35.74,136.65 -78.343,303.28 l -77.55,302.81 z"
       id="path6"
       style="fill:#efefef;fill-opacity:0.2" />
    <path
       d="M 941.27,975.14 C 716.46,749.89 600.76,634.68 600,635.05 c -2.1548,1.0661 -224.65,224.27 -224.24,224.94 0.25091,0.5071 136.65,35.74 303.28,78.343 l 302.81,77.55 z"
       id="path8"
       style="fill:#efefef;fill-opacity:0.2" />
  </g>
  <g
     transform="matrix(0.093689,0,0,0.093689,-17.249,-17.249)"
     fill="#ffffff"
     stroke-width="0.1"
     id="g20"
     style="fill:#efefef;fill-opacity:1">
    <path
       d="M 975.14,258.73 C 749.89,483.54 634.68,599.24 635.05,600 c 1.0661,2.1549 224.27,224.65 224.94,224.24 0.5071,-0.2508 35.74,-136.65 78.343,-303.28 l 77.55,-302.81 z"
       id="path12"
       style="fill:#efefef;fill-opacity:1" />
    <path
       d="M 258.73,224.86 C 483.54,450.11 599.24,565.32 600,564.95 602.1549,563.8839 824.65,340.68 824.24,340.01 823.9891,339.5029 687.59,304.27 520.96,261.667 l -302.81,-77.55 z"
       id="path14"
       style="fill:#efefef;fill-opacity:1" />
    <path
       d="M 224.86,941.27 C 450.11,716.46 565.32,600.76 564.95,600 563.8839,597.8451 340.68,375.35 340.01,375.76 c -0.50711,0.2508 -35.74,136.65 -78.343,303.28 l -77.55,302.81 z"
       id="path16"
       style="fill:#efefef;fill-opacity:1" />
    <path
       d="M 941.27,975.14 C 716.46,749.89 600.76,634.68 600,635.05 c -2.1548,1.0661 -224.65,224.27 -224.24,224.94 0.25091,0.5071 136.65,35.74 303.28,78.343 l 302.81,77.55 z"
       id="path18"
       style="fill:#efefef;fill-opacity:1" />
  </g>
  <g
     aria-label="Qwaderton"
     id="text24"
     style="font-size:56.444px;line-height:1.25;font-family:Urbanist;fill:#efefef;stroke-width:0.26458">
    <path
       d="m 124.13207,60.441206 -4.71308,-4.713074 q -2.48353,2.201316 -5.6444,3.443084 -3.13264,1.241768 -6.63217,1.241768 -4.03574,0 -7.563492,-1.580432 -3.52775,-1.608654 -6.20884,-4.402632 -2.68109,-2.8222 -4.205078,-6.547504 -1.495766,-3.725304 -1.495766,-7.958604 0,-4.2333 1.495766,-7.930382 1.523988,-3.725304 4.205078,-6.547504 2.68109,-2.8222 6.20884,-4.402632 3.527752,-1.608654 7.563492,-1.608654 4.03575,0 7.53528,1.608654 3.52775,1.580432 6.20884,4.402632 2.68109,2.8222 4.17685,6.547504 1.52399,3.697082 1.52399,7.930382 0,3.725304 -1.18532,7.027278 -1.18533,3.301974 -3.27375,5.954842 l 4.79774,4.741296 z m -16.98965,-3.979302 q 2.56821,0 5.02352,-0.931326 2.48354,-0.931326 4.37441,-2.652868 l -5.84195,-5.841954 2.79397,-2.8222 5.72907,5.757288 q 1.6651,-2.11665 2.53998,-4.713074 0.87488,-2.596424 0.87488,-5.333958 0,-3.414862 -1.21354,-6.406394 -1.21355,-2.991532 -3.35842,-5.277514 -2.11665,-2.285982 -4.93885,-3.555972 -2.79398,-1.298212 -5.98307,-1.298212 -3.24553,0 -6.06773,1.326434 -2.793974,1.298212 -4.938846,3.612416 -2.11665,2.285982 -3.330196,5.277514 -1.185324,2.96331 -1.185324,6.321728 0,3.414862 1.213546,6.406394 1.213546,2.991532 3.358418,5.277514 2.144872,2.285982 4.938852,3.584194 2.8222,1.26999 6.01128,1.26999 z"
       id="path303" />
    <path
       d="m 143.32304,59.763878 h -4.06396 l -9.45437,-28.222 h 3.86641 l 7.67638,22.746932 7.61994,-22.746932 h 4.17686 l 7.61994,22.746932 7.61994,-22.746932 h 3.89464 l -9.45437,28.222 h -4.09219 L 150.99943,36.79117 Z"
       id="path305" />
    <path
       d="m 199.06146,31.541878 h 3.95108 v 28.222 h -3.95108 l -0.14111,-5.249292 q -1.38288,2.68109 -3.86642,4.346188 -2.48353,1.636876 -5.92662,1.636876 -3.10442,0 -5.81373,-1.157102 -2.70931,-1.185324 -4.76952,-3.24553 -2.0602,-2.060206 -3.2173,-4.769518 -1.15711,-2.709312 -1.15711,-5.813732 0,-3.047976 1.12888,-5.729066 1.15711,-2.68109 3.16087,-4.713074 2.03198,-2.031984 4.68485,-3.160864 2.68109,-1.157102 5.72907,-1.157102 3.52775,0 6.15239,1.69332 2.62465,1.665098 4.17686,4.37441 z m -10.01881,25.11758 q 3.01975,0 5.19285,-1.467544 2.17309,-1.495766 3.33019,-4.007524 1.18533,-2.511758 1.18533,-5.531512 0,-3.10442 -1.18533,-5.587956 -1.18532,-2.511758 -3.35842,-3.979302 -2.17309,-1.467544 -5.16462,-1.467544 -2.99153,0 -5.47507,1.495766 -2.45531,1.467544 -3.92286,3.979302 -1.43932,2.511758 -1.43932,5.559734 0,3.076198 1.49577,5.587956 1.49576,2.483536 3.95108,3.95108 2.48353,1.467544 5.3904,1.467544 z"
       id="path307" />
    <path
       d="m 231.31916,17.430878 h 3.95108 v 42.333 h -3.95108 v -5.277514 q -1.46755,2.709312 -4.03575,4.37441 -2.53998,1.636876 -6.03951,1.636876 -3.0762,0 -5.75729,-1.157102 -2.68109,-1.157102 -4.74129,-3.189086 -2.03199,-2.060206 -3.18909,-4.741296 -1.1571,-2.68109 -1.1571,-5.757288 0,-3.076198 1.1571,-5.757288 1.1571,-2.709312 3.18909,-4.741296 2.0602,-2.060206 4.74129,-3.217308 2.68109,-1.157102 5.75729,-1.157102 3.49953,0 6.03951,1.665098 2.5682,1.636876 4.03575,4.317966 z m -10.04704,39.22858 q 3.01976,0 5.19285,-1.467544 2.1731,-1.495766 3.3302,-4.007524 1.18532,-2.511758 1.18532,-5.531512 0,-3.10442 -1.18532,-5.587956 -1.18533,-2.511758 -3.35842,-3.979302 -2.17309,-1.467544 -5.16463,-1.467544 -2.99153,0 -5.44684,1.495766 -2.45532,1.467544 -3.92286,3.979302 -1.46754,2.511758 -1.46754,5.559734 0,3.076198 1.49576,5.587956 1.49577,2.483536 3.95108,3.95108 2.48354,1.467544 5.3904,1.467544 z"
       id="path309" />
    <path
       d="m 254.26361,60.49765 q -3.89464,0 -7.11194,-2.003762 -3.18909,-2.003762 -5.10819,-5.36218 -1.89087,-3.38664 -1.89087,-7.47883 0,-3.10442 1.10066,-5.78551 1.10066,-2.709312 3.01975,-4.741296 1.94732,-2.060206 4.51552,-3.217308 2.5682,-1.157102 5.47507,-1.157102 3.13264,0 5.75729,1.241768 2.65287,1.241768 4.54374,3.471306 1.9191,2.229538 2.87864,5.22107 0.98777,2.991532 0.81844,6.462838 h -23.93225 q 0.33866,2.68109 1.69332,4.79774 1.38287,2.11665 3.49952,3.358418 2.14488,1.213546 4.7413,1.241768 2.8222,0 5.07996,-1.467544 2.28598,-1.467544 3.66886,-4.035746 l 4.00752,0.931326 q -1.69332,3.753526 -5.10818,6.152396 -3.41486,2.370648 -7.64816,2.370648 z M 244.21658,43.959558 h 20.06584 q -0.19755,-2.624646 -1.60865,-4.79774 -1.38288,-2.201316 -3.5842,-3.499528 -2.20131,-1.326434 -4.82596,-1.326434 -2.62465,0 -4.79774,1.298212 -2.17309,1.26999 -3.55597,3.471306 -1.38288,2.173094 -1.69332,4.854184 z"
       id="path311" />
    <path
       d="m 273.08775,59.763878 v -28.222 h 3.95108 v 3.894636 q 1.49577,-2.144872 3.89464,-3.414862 2.39887,-1.26999 5.22107,-1.26999 1.63687,0 3.16086,0.42333 l -1.60865,3.922858 q -1.18533,-0.366886 -2.31421,-0.366886 -2.28598,0 -4.20508,1.12888 -1.89087,1.12888 -3.01975,3.019754 -1.12888,1.890874 -1.12888,4.205078 v 16.679202 z"
       id="path313" />
    <path
       d="m 307.68792,35.492958 h -6.74506 l -0.0282,24.27092 h -3.95108 l 0.0282,-24.27092 h -5.10818 v -3.95108 h 5.10818 l -0.0282,-8.861708 h 3.95108 l 0.0282,8.861708 h 6.74506 z"
       id="path315" />
    <path
       d="m 324.39531,60.49765 q -3.89464,0 -7.11195,-2.003762 -3.18908,-2.003762 -5.10818,-5.36218 -1.89087,-3.38664 -1.89087,-7.47883 0,-3.10442 1.10066,-5.78551 1.10065,-2.709312 3.01975,-4.741296 1.94732,-2.060206 4.51552,-3.217308 2.5682,-1.157102 5.47507,-1.157102 3.89463,0 7.08372,2.003762 3.21731,2.003762 5.10818,5.390402 1.9191,3.38664 1.9191,7.507052 0,3.076198 -1.10066,5.757288 -1.10066,2.68109 -3.04798,4.741296 -1.91909,2.031984 -4.48729,3.189086 -2.53998,1.157102 -5.47507,1.157102 z m 0,-3.95108 q 2.87864,0 5.16462,-1.495766 2.31421,-1.523988 3.64064,-4.007524 1.35466,-2.483536 1.35466,-5.390402 0,-2.96331 -1.35466,-5.446846 -1.35465,-2.511758 -3.66886,-4.007524 -2.28598,-1.495766 -5.1364,-1.495766 -2.87865,0 -5.19285,1.523988 -2.28598,1.495766 -3.64064,3.979302 -1.32643,2.483536 -1.32643,5.446846 0,3.047976 1.38288,5.531512 1.38287,2.455314 3.69708,3.922858 2.3142,1.439322 5.07996,1.439322 z"
       id="path317" />
    <path
       d="m 367.91364,42.29446 v 17.469418 h -3.95108 V 43.084676 q 0,-2.314204 -1.12888,-4.205078 -1.12888,-1.890874 -3.01975,-3.019754 -1.89087,-1.12888 -4.20508,-1.12888 -2.28598,0 -4.20508,1.12888 -1.89087,1.12888 -3.01975,3.019754 -1.12888,1.890874 -1.12888,4.205078 v 16.679202 h -3.95108 v -28.222 h 3.95108 v 3.894636 q 1.49577,-2.144872 3.89464,-3.414862 2.39887,-1.26999 5.22107,-1.26999 3.18908,0 5.81373,1.55221 2.62464,1.55221 4.17685,4.176856 1.55221,2.624646 1.55221,5.813732 z"
       id="path319" />
  </g>
  <g
     aria-label="Labs"
     id="text28"
     style="font-size:56.444px;line-height:1.25;fill:#efefef;stroke-width:0.26458">
    <path
       d="m 387.39692,59.763878 v -39.5108 h 3.95108 v 35.55972 h 18.14675 v 3.95108 z"
       style="font-family:Urbanist"
       id="path294" />
    <path
       d="m 435.99514,31.541878 h 3.95108 v 28.222 h -3.95108 l -0.14111,-5.249292 q -1.38287,2.68109 -3.86641,4.346188 -2.48354,1.636876 -5.92662,1.636876 -3.10442,0 -5.81373,-1.157102 -2.70931,-1.185324 -4.76952,-3.24553 -2.06021,-2.060206 -3.21731,-4.769518 -1.1571,-2.709312 -1.1571,-5.813732 0,-3.047976 1.12888,-5.729066 1.1571,-2.68109 3.16086,-4.713074 2.03199,-2.031984 4.68486,-3.160864 2.68109,-1.157102 5.72906,-1.157102 3.52775,0 6.1524,1.69332 2.62464,1.665098 4.17685,4.37441 z m -10.01881,25.11758 q 3.01976,0 5.19285,-1.467544 2.1731,-1.495766 3.3302,-4.007524 1.18532,-2.511758 1.18532,-5.531512 0,-3.10442 -1.18532,-5.587956 -1.18533,-2.511758 -3.35842,-3.979302 -2.17309,-1.467544 -5.16463,-1.467544 -2.99153,0 -5.47506,1.495766 -2.45532,1.467544 -3.92286,3.979302 -1.43932,2.511758 -1.43932,5.559734 0,3.076198 1.49576,5.587956 1.49577,2.483536 3.95108,3.95108 2.48354,1.467544 5.3904,1.467544 z"
       style="font-family:Urbanist"
       id="path296" />
    <path
       d="m 459.9556,30.751662 q 4.12041,0 7.47883,2.003762 3.38664,2.003762 5.3904,5.390402 2.00376,3.358418 2.00376,7.47883 0,3.076198 -1.1571,5.78551 -1.1571,2.68109 -3.21731,4.741296 -2.03198,2.031984 -4.74129,3.189086 -2.68109,1.157102 -5.75729,1.157102 -3.49953,0 -6.03951,-1.665098 -2.53998,-1.665098 -4.00752,-4.346188 v 5.277514 h -3.95108 v -42.333 h 3.95108 v 19.33207 q 1.46754,-2.68109 4.00752,-4.346188 2.53998,-1.665098 6.03951,-1.665098 z m -0.0282,25.879574 q 3.01975,0 5.47506,-1.467544 2.45532,-1.495766 3.92286,-4.007524 1.46755,-2.511758 1.46755,-5.531512 0,-3.10442 -1.49577,-5.587956 -1.49577,-2.511758 -3.9793,-3.979302 -2.45532,-1.467544 -5.3904,-1.467544 -2.99154,0 -5.19285,1.495766 -2.1731,1.495766 -3.35842,4.007524 -1.1571,2.511758 -1.1571,5.531512 0,3.076198 1.18532,5.587956 1.18533,2.483536 3.35842,3.95108 2.20132,1.467544 5.16463,1.467544 z"
       style="font-family:Urbanist"
       id="path298" />
    <path
       d="m 488.43157,60.300096 q -2.3142,-0.05644 -4.51552,-0.84666 -2.20131,-0.790216 -3.83819,-2.144872 -1.63688,-1.354656 -2.34243,-3.076198 l 3.41487,-1.467544 q 0.45155,1.100658 1.66509,2.031984 1.24177,0.903104 2.8222,1.467544 1.58044,0.536218 3.13265,0.536218 1.72154,0 3.2173,-0.56444 1.49577,-0.56444 2.4271,-1.608654 0.95954,-1.072436 0.95954,-2.511758 0,-1.55221 -1.01599,-2.427092 -1.01599,-0.903104 -2.5682,-1.4111 -1.55221,-0.536218 -3.18909,-1.015992 -2.99153,-0.818438 -5.27751,-1.806208 -2.28598,-0.98777 -3.58419,-2.511758 -1.26999,-1.55221 -1.26999,-3.979302 0,-2.568202 1.43932,-4.430854 1.46754,-1.890874 3.80997,-2.906866 2.37065,-1.044214 5.05174,-1.044214 3.44308,0 6.26528,1.495766 2.85042,1.495766 4.12041,3.979302 l -3.18908,1.890874 q -0.508,-1.157102 -1.60866,-2.003762 -1.10066,-0.84666 -2.51176,-1.326434 -1.38287,-0.479774 -2.8222,-0.507996 -1.8062,-0.02822 -3.35841,0.536218 -1.55221,0.536218 -2.51176,1.608654 -0.93133,1.072436 -0.93133,2.624646 0,1.55221 0.93133,2.370648 0.93132,0.790216 2.51176,1.298212 1.60865,0.479774 3.61241,1.12888 2.5682,0.818438 4.82596,1.862652 2.25776,1.044214 3.64064,2.596424 1.38288,1.55221 1.35466,3.922858 0,2.53998 -1.52399,4.430854 -1.52399,1.890874 -3.95108,2.906866 -2.42709,0.98777 -5.19285,0.903104 z"
       style="font-family:Urbanist"
       id="path300" />
  </g>
  <rect
     style="fill:#1a1a1a;stroke-width:0.261634"
     id="rect19912-5"
     width="6.4939995"
     height="6.4943948"
     x="35.717602"
     y="35.680599" />
</svg>
