<svg width="77.928mm" height="77.928mm" version="1.1" viewBox="0 0 77.928 77.928" xmlns="http://www.w3.org/2000/svg">
 <g fill="#fff" stroke-width=".1">
  <g transform="matrix(-.093689 0 0 .093689 95.178 -17.249)" fill="#1f1f1f" fill-opacity=".2">
   <path d="m975.14 258.73c-225.25 224.81-340.46 340.51-340.09 341.27 1.0661 2.1549 224.27 224.65 224.94 224.24 0.5071-0.2508 35.74-136.65 78.343-303.28l77.55-302.81z"/>
   <path d="m258.73 224.86c224.81 225.25 340.51 340.46 341.27 340.09 2.1549-1.0661 224.65-224.27 224.24-224.94-0.2509-0.5071-136.65-35.74-303.28-78.343l-302.81-77.55z"/>
   <path d="m224.86 941.27c225.25-224.81 340.46-340.51 340.09-341.27-1.0661-2.1549-224.27-224.65-224.94-224.24-0.50711 0.2508-35.74 136.65-78.343 303.28l-77.55 302.81z"/>
   <path d="m941.27 975.14c-224.81-225.25-340.51-340.46-341.27-340.09-2.1548 1.0661-224.65 224.27-224.24 224.94 0.25091 0.5071 136.65 35.74 303.28 78.343l302.81 77.55z"/>
  </g>
  <g transform="matrix(.093689 0 0 .093689 -17.249 -17.249)" fill="#1f1f1f">
   <path d="m975.14 258.73c-225.25 224.81-340.46 340.51-340.09 341.27 1.0661 2.1549 224.27 224.65 224.94 224.24 0.5071-0.2508 35.74-136.65 78.343-303.28l77.55-302.81z"/>
   <path d="m258.73 224.86c224.81 225.25 340.51 340.46 341.27 340.09 2.1549-1.0661 224.65-224.27 224.24-224.94-0.2509-0.5071-136.65-35.74-303.28-78.343l-302.81-77.55z"/>
   <path d="m224.86 941.27c225.25-224.81 340.46-340.51 340.09-341.27-1.0661-2.1549-224.27-224.65-224.94-224.24-0.50711 0.2508-35.74 136.65-78.343 303.28l-77.55 302.81z"/>
   <path d="m941.27 975.14c-224.81-225.25-340.51-340.46-341.27-340.09-2.1548 1.0661-224.65 224.27-224.24 224.94 0.25091 0.5071 136.65 35.74 303.28 78.343l302.81 77.55z"/>
  </g>
 </g>
</svg>
