<?xml version="1.0" encoding="UTF-8" standalone="no"?>
<!-- Created with Inkscape (http://www.inkscape.org/) -->

<svg
   width="4080"
   height="2288"
   viewBox="0 0 1079.5 605.36668"
   version="1.1"
   id="svg5"
   inkscape:version="1.1.1 (3bf5ae0d25, 2021-09-20)"
   sodipodi:docname="second-dimension.svg"
   inkscape:export-filename="/home/atarwn/Изображения/Обои/intersection.png"
   inkscape:export-xdpi="96"
   inkscape:export-ydpi="96"
   xmlns:inkscape="http://www.inkscape.org/namespaces/inkscape"
   xmlns:sodipodi="http://sodipodi.sourceforge.net/DTD/sodipodi-0.dtd"
   xmlns="http://www.w3.org/2000/svg"
   xmlns:svg="http://www.w3.org/2000/svg">
  <sodipodi:namedview
     id="namedview7"
     pagecolor="#ffffff"
     bordercolor="#666666"
     borderopacity="1.0"
     inkscape:pageshadow="2"
     inkscape:pageopacity="0.0"
     inkscape:pagecheckerboard="0"
     inkscape:document-units="mm"
     showgrid="false"
     units="px"
     height="1122.5196px"
     inkscape:snap-bbox="true"
     inkscape:snap-page="true"
     inkscape:zoom="0.19573875"
     inkscape:cx="743.33773"
     inkscape:cy="761.2187"
     inkscape:window-width="1920"
     inkscape:window-height="1011"
     inkscape:window-x="0"
     inkscape:window-y="0"
     inkscape:window-maximized="1"
     inkscape:current-layer="layer1"
     inkscape:snap-object-midpoints="true"
     inkscape:snap-center="true"
     inkscape:snap-midpoints="true"
     inkscape:snap-smooth-nodes="true"
     inkscape:snap-intersection-paths="true"
     inkscape:object-paths="true"
     inkscape:bbox-paths="true"
     inkscape:bbox-nodes="true"
     inkscape:snap-bbox-edge-midpoints="true"
     inkscape:snap-bbox-midpoints="true" />
  <defs
     id="defs2" />
  <g
     inkscape:label="Слой 1"
     inkscape:groupmode="layer"
     id="layer1">
    <rect
       style="fill:#000000;stroke-width:0.264583"
       id="rect60"
       width="1079.5"
       height="605.36664"
       x="0"
       y="2.7338663e-06" />
    <path
       d="M 544.99273,8.0862468 C 374.78873,177.95716 287.72873,265.38141 288.01303,265.95609 c 0.8056,1.62827 169.4666,169.74832 169.9697,169.4398 0.3832,-0.18951 27.0064,-103.25684 59.1978,-229.16837 l 58.599,-228.812511 z"
       id="path1"
       sodipodi:nodetypes="cscccc"
       style="fill:#efefef;fill-opacity:1;stroke-width:0.0755626" />
    <path
       d="M 488.65397,466.18265 C 658.52487,636.38663 745.94913,723.44664 746.5238,723.1623 748.15207,722.35673 916.27217,553.69572 915.96365,553.19263 915.77406,552.80945 812.70678,526.18627 686.79523,493.99481 L 457.98273,435.39589 Z"
       id="path1-3"
       sodipodi:nodetypes="cscccc"
       style="fill:#efefef;fill-opacity:1;stroke-width:0.0755626" />
    <path
       d="M 946.74868,522.52182 C 1116.9527,352.65092 1204.0127,265.22667 1203.7283,264.65199 1202.9227,263.02372 1034.2618,94.903663 1033.7587,95.212183 c -0.3832,0.18951 -27.0064,103.256847 -59.19786,229.168377 l -58.59892,228.81247 z"
       id="path1-6"
       sodipodi:nodetypes="cscccc"
       style="fill:#efefef;fill-opacity:1;stroke-width:0.0755626" />
    <path
       d="M 1003.0892,64.424989 C 833.21828,-105.77899 745.79408,-192.839 745.21938,-192.55466 c -1.6283,0.80557 -169.74837,169.466569 -169.43985,169.969669 0.18959,0.38318 103.25686,27.0063602 229.16845,59.19782 l 228.81252,58.59893 z"
       id="path1-3-7"
       sodipodi:nodetypes="cscccc"
       style="fill:#efefef;fill-opacity:1;stroke-width:0.0755626" />
  </g>
</svg>
